<svg
    class="w-44"
    xmlns="http://www.w3.org/2000/svg"
    viewBox="51.646874999999994 14 396.70625 122"
    style="background: rgba(0, 0, 0, 0)"
    preserveAspectRatio="xMidYMid"
    >
    <defs>
        <filter
            id="editing-hole"
            x="-100%"
            y="-100%"
            width="300%"
            height="300%"
            >
            <feFlood flood-color="#000" result="black"></feFlood>
            <feMorphology
                operator="dilate"
                radius="2"
                in="SourceGraphic"
                result="erode"
                ></feMorphology>
            <feGaussianBlur
                in="erode"
                stdDeviation="4"
                result="blur"
                ></feGaussianBlur>
            <feOffset in="blur" dx="2" dy="2" result="offset"></feOffset>
            <feComposite
                operator="atop"
                in="offset"
                in2="black"
                result="merge"
                ></feComposite>
            <feComposite
                operator="in"
                in="merge"
                in2="SourceGraphic"
                result="inner-shadow"
                ></feComposite>
            </filter>
        </defs>
        <g filter="url(#editing-hole)">
            <g transform="translate(111.88499143719673, 104.79000091552734)">
                <path
                    d="M0.45-0.32L0.45-0.32L8.51-42.24L8.51-42.24Q16.06-42.88 20.93-42.88L20.93-42.88L20.93-42.88Q25.79-42.88 28.93-42.46L28.93-42.46L28.93-42.46Q32.06-42.05 34.18-40.96L34.18-40.96L34.18-40.96Q38.40-38.91 38.40-33.28L38.40-33.28L38.40-33.28Q38.40-30.02 35.58-27.26L35.58-27.26L35.58-27.26Q32.96-24.77 30.08-24.19L30.08-24.19L30.08-24.19Q33.15-23.68 35.33-21.38L35.33-21.38L35.33-21.38Q37.63-18.94 37.63-15.17L37.63-15.17L37.63-15.17Q37.63-7.87 32.19-3.62L32.19-3.62L32.19-3.62Q26.75 0.64 16.06 0.64L16.06 0.64L16.06 0.64Q8.70 0.64 0.45-0.32ZM17.86-20.61L14.66-4.03L14.66-4.03Q15.23-3.97 15.36-3.97L15.36-3.97L15.94-3.97L15.94-3.97Q21.18-3.97 23.42-7.42L23.42-7.42L23.42-7.42Q25.09-10.11 25.09-15.04L25.09-15.04L25.09-15.04Q25.09-17.66 23.39-19.07L23.39-19.07L23.39-19.07Q21.70-20.48 17.86-20.61L17.86-20.61ZM27.58-33.22L27.58-33.22L27.58-33.22Q27.58-38.53 22.46-38.53L22.46-38.53L21.89-38.53L21.89-38.53Q21.63-38.53 21.25-38.46L21.25-38.46L18.69-24.96L19.33-24.96L19.33-24.96Q27.58-25.15 27.58-33.22ZM73.28-26.62L73.28-26.62L73.28-26.62Q73.28-23.94 71.04-22.27L71.04-22.27L71.04-22.27Q68.80-20.61 65.15-20.61L65.15-20.61L65.15-20.61Q63.62-20.61 62.72-21.06L62.72-21.06L62.72-21.06Q63.42-22.72 63.65-24.80L63.65-24.80L63.65-24.80Q63.87-26.88 63.87-27.46L63.87-27.46L63.87-27.46Q63.87-30.14 62.02-30.14L62.02-30.14L62.02-30.14Q60.74-30.14 59.30-28.54L59.30-28.54L59.30-28.54Q57.86-26.94 56.64-24.45L56.64-24.45L56.64-24.45Q53.95-18.69 53.95-12.86L53.95-12.86L53.95-12.86Q53.95-9.66 55.17-8.22L55.17-8.22L55.17-8.22Q56.38-6.78 59.07-6.78L59.07-6.78L59.07-6.78Q62.78-6.78 65.73-9.86L65.73-9.86L65.73-9.86Q66.56-10.82 67.01-11.90L67.01-11.90L67.01-11.90Q69.44-10.62 69.44-7.10L69.44-7.10L69.44-7.10Q69.44-3.52 65.47-1.15L65.47-1.15L65.47-1.15Q61.38 1.28 54.85 1.28L54.85 1.28L54.85 1.28Q41.86 1.28 41.86-12.48L41.86-12.48L41.86-12.48Q41.86-22.53 47.55-28.29L47.55-28.29L47.55-28.29Q53.06-33.92 63.17-33.92L63.17-33.92L63.17-33.92Q73.28-33.92 73.28-26.62ZM95.04-17.98L95.04-17.98L95.04-17.98Q97.34-22.08 97.34-26.24L97.34-26.24L97.34-26.24Q97.34-28.99 95.36-28.99L95.36-28.99L95.36-28.99Q93.82-28.99 92.22-26.37L92.22-26.37L92.22-26.37Q90.56-23.74 90.05-20.35L90.05-20.35L86.72 0L73.47 1.28L80-32.64L90.56-33.92L89.41-27.46L89.41-27.46Q92.54-33.92 99.58-33.92L99.58-33.92L99.58-33.92Q103.30-33.92 105.31-32L105.31-32L105.31-32Q107.33-30.08 107.33-26.14L107.33-26.14L107.33-26.14Q107.33-22.21 104.74-19.71L104.74-19.71L104.74-19.71Q102.14-17.22 97.73-17.22L97.73-17.22L97.73-17.22Q95.81-17.22 95.04-17.98ZM128.70-7.23L128.70-7.23L128.70-7.23Q125.38-3.78 119.30-3.78L119.30-3.78L119.30-3.78Q111.68-3.78 110.08-9.34L110.08-9.34L110.08-9.34Q109.57-11.01 109.57-12.86L109.57-12.86L109.57-12.86Q109.57-14.72 109.95-16.64L109.95-16.64L112.96-32.64L125.95-33.92L122.43-15.30L122.43-15.30Q122.30-14.46 122.11-13.57L122.11-13.57L122.11-13.57Q121.92-12.67 121.92-11.74L121.92-11.74L121.92-11.74Q121.92-10.82 122.24-10.21L122.24-10.21L122.24-10.21Q122.56-9.60 123.01-9.22L123.01-9.22L123.01-9.22Q123.78-8.70 125.15-8.70L125.15-8.70L125.15-8.70Q126.53-8.70 127.71-10.37L127.71-10.37L127.71-10.37Q128.90-12.03 129.47-14.91L129.47-14.91L132.99-32.64L145.60-33.92L140.80-8.77L140.80-8.77Q138.43 3.52 133.57 8.38L133.57 8.38L133.57 8.38Q131.07 10.88 127.84 11.87L127.84 11.87L127.84 11.87Q124.61 12.86 120.45 12.86L120.45 12.86L120.45 12.86Q113.73 12.86 109.89 10.75L109.89 10.75L109.89 10.75Q106.05 8.64 106.05 5.12L106.05 5.12L106.05 5.12Q106.05 2.50 108.03 0.99L108.03 0.99L108.03 0.99Q110.02-0.51 113.09-0.51L113.09-0.51L113.09-0.51Q115.78-0.51 117.82 0.64L117.82 0.64L117.82 0.64Q119.04 1.34 119.62 2.24L119.62 2.24L119.62 2.24Q118.14 3.52 118.14 5.63L118.14 5.63L118.14 5.63Q118.14 8.45 120.70 8.45L120.70 8.45L120.70 8.45Q124.93 8.45 127.36-1.28L127.36-1.28L127.36-1.28Q128.06-4.16 128.70-7.23ZM177.73-4.38L177.73-4.38L177.73-4.38Q175.04-1.66 171.36-0.19L171.36-0.19L171.36-0.19Q167.68 1.28 164.03 1.28L164.03 1.28L164.03 1.28Q160.38 1.28 159.10 0.64L159.10 0.64L157.12 11.52L144.13 12.80L152.96-32.64L163.39-33.73L162.56-29.31L162.56-29.31Q165.25-33.86 170.82-33.86L170.82-33.86L170.82-33.86Q177.09-33.86 180.42-29.82L180.42-29.82L180.42-29.82Q183.36-26.18 183.36-20.61L183.36-20.61L183.36-20.61Q183.36-15.04 181.89-11.07L181.89-11.07L181.89-11.07Q180.42-7.10 177.73-4.38ZM163.26-22.34L159.87-3.58L159.87-3.58Q161.22-2.43 162.88-2.43L162.88-2.43L162.88-2.43Q164.54-2.43 165.50-3.07L165.50-3.07L165.50-3.07Q166.46-3.71 167.17-4.99L167.17-4.99L167.17-4.99Q169.09-8.45 170.62-18.94L170.62-18.94L170.62-18.94Q171.07-22.02 171.07-25.02L171.07-25.02L171.07-25.02Q171.07-28.03 170.40-28.99L170.40-28.99L170.40-28.99Q169.73-29.95 168.45-29.95L168.45-29.95L168.45-29.95Q164.54-29.95 163.26-22.34L163.26-22.34ZM188.22-6.40L188.22-6.40L188.22-6.40Q188.22-8.13 189.12-12.48L189.12-12.48L192.51-29.76L188.74-29.76L188.99-31.68L188.99-31.68Q196.67-33.98 204.10-39.62L204.10-39.62L207.17-39.62L205.63-32.64L210.62-32.64L210.05-29.76L205.12-29.76L201.86-12.48L201.86-12.48Q201.02-8.51 201.02-7.17L201.02-7.17L201.02-7.17Q201.02-4.10 203.71-3.46L203.71-3.46L203.71-3.46Q203.07-1.28 200.77 0L200.77 0L200.77 0Q198.46 1.28 195.20 1.28L195.20 1.28L195.20 1.28Q191.94 1.28 190.08-0.77L190.08-0.77L190.08-0.77Q188.22-2.82 188.22-6.40ZM208.38-3.78L208.38-3.78L208.38-3.78Q208.38-6.21 210.27-7.55L210.27-7.55L210.27-7.55Q212.16-8.90 214.85-8.90L214.85-8.90L214.85-8.90Q217.54-8.90 219.17-7.55L219.17-7.55L219.17-7.55Q220.80-6.21 220.80-3.78L220.80-3.78L220.80-3.78Q220.80-1.34 218.98-0.03L218.98-0.03L218.98-0.03Q217.15 1.28 214.46 1.28L214.46 1.28L214.46 1.28Q211.78 1.28 210.08-0.03L210.08-0.03L210.08-0.03Q208.38-1.34 208.38-3.78ZM217.86 7.62L217.86 7.62L217.86 7.62Q221.18 7.36 223.62 3.20L223.62 3.20L223.62 3.20Q225.47 0 226.69-5.89L226.69-5.89L231.87-32.64L244.74-33.92L239.30-5.89L239.30-5.89Q237.18 4.80 233.92 8.32L233.92 8.32L233.92 8.32Q232.19 10.24 229.95 10.88L229.95 10.88L229.95 10.88Q227.71 11.52 225.15 11.52L225.15 11.52L225.15 11.52Q219.78 11.52 217.86 7.62ZM232.90-41.54L232.90-41.54L232.90-41.54Q232.90-44.03 234.98-45.38L234.98-45.38L234.98-45.38Q237.06-46.72 240.06-46.72L240.06-46.72L240.06-46.72Q243.07-46.72 244.90-45.38L244.90-45.38L244.90-45.38Q246.72-44.03 246.72-41.54L246.72-41.54L246.72-41.54Q246.72-39.04 244.70-37.76L244.70-37.76L244.70-37.76Q242.69-36.48 239.68-36.48L239.68-36.48L239.68-36.48Q236.67-36.48 234.78-37.76L234.78-37.76L234.78-37.76Q232.90-39.04 232.90-41.54ZM266.18-22.46L266.18-22.46L266.18-22.46Q267.07-24.83 267.07-26.88L267.07-26.88L267.07-26.88Q267.07-30.66 264-30.66L264-30.66L264-30.66Q262.40-30.66 261.09-29.22L261.09-29.22L261.09-29.22Q259.78-27.78 259.78-25.98L259.78-25.98L259.78-25.98Q259.78-24.70 260.80-23.68L260.80-23.68L260.80-23.68Q262.27-22.27 266.05-19.97L266.05-19.97L266.05-19.97Q269.82-17.66 271.26-15.78L271.26-15.78L271.26-15.78Q272.70-13.89 272.70-11.30L272.70-11.30L272.70-11.30Q272.70-8.70 271.46-6.34L271.46-6.34L271.46-6.34Q270.21-3.97 267.97-2.30L267.97-2.30L267.97-2.30Q263.17 1.28 255.49 1.28L255.49 1.28L255.49 1.28Q251.33 1.28 248.13-0.90L248.13-0.90L248.13-0.90Q244.93-3.01 244.93-5.50L244.93-5.50L244.93-5.50Q244.93-8 246.75-9.47L246.75-9.47L246.75-9.47Q248.58-10.94 251.26-10.94L251.26-10.94L251.26-10.94Q253.95-10.94 255.62-9.92L255.62-9.92L255.62-9.92Q254.78-7.81 254.78-6.40L254.78-6.40L254.78-6.40Q254.78-2.18 258.37-2.18L258.37-2.18L258.37-2.18Q259.90-2.18 260.93-3.14L260.93-3.14L260.93-3.14Q261.95-4.10 261.95-5.76L261.95-5.76L261.95-5.76Q261.95-9.02 256.45-12.48L256.45-12.48L256.45-12.48Q251.97-15.42 250.94-16.58L250.94-16.58L250.94-16.58Q249.22-18.62 249.22-21.18L249.22-21.18L249.22-21.18Q249.22-23.74 250.43-26.18L250.43-26.18L250.43-26.18Q251.65-28.61 253.89-30.34L253.89-30.34L253.89-30.34Q258.56-33.92 266.69-33.92L266.69-33.92L266.69-33.92Q270.85-33.92 273.31-32.26L273.31-32.26L273.31-32.26Q275.78-30.59 275.78-27.78L275.78-27.78L275.78-27.78Q275.78-24.96 274.08-23.36L274.08-23.36L274.08-23.36Q272.38-21.76 269.31-21.76L269.31-21.76L269.31-21.76Q267.20-21.76 266.18-22.46Z"
                    fill="#ccc"
                    ></path>
                </g>
            </g>
            <style>
                text {
                font-size: 40px;
                font-family: Arial Black;
                text-anchor: middle;
                }
            </style>
        </svg>
